#N canvas 641 87 956 989 10;
#X declare -lib mrpeach;
#X obj 244 66 import mrpeach;
#X obj 422 746 udpsend;
#X obj 459 708 packOSC;
#X msg 468 136 disconnect;
#X obj 31 77 unpackOSC;
#X obj 31 111 print;
#X obj 30 55 udpreceive 9002;
#X msg 577 251 /oscmidi/parameter_request 0;
#X obj 201 213 sysexin;
#X obj 196 287 print;
#X obj 249 286 print;
#X msg 563 232 connect 192.168.178.35 9000;
#X text 136 461 4.09574e+06 = 3e7f01 4.06784e+06 = inf;
#X msg 609 311 /oscmidi/parameter_change 4.06784e+06 28 0 0;
#X msg 626 332 /oscmidi/parameter_change 4.06784e+06 28 0 1919;
#X obj 246 409 print;
#X obj 198 335 midiin;
#X obj 56 731 midiout;
#X floatatom 100 682 5 0 0 0 - - -;
#X msg 81 600 240 67 16 62 18 1 0 51 0 0 0 0 0 0 0 7 127 247;
#X msg 35 549 F0 43 10 3E 12 1 0 33 0 0 0 0 0 0 0 7 7F F7;
#X connect 2 0 1 0;
#X connect 3 0 1 0;
#X connect 4 0 5 0;
#X connect 6 0 4 0;
#X connect 7 0 2 0;
#X connect 8 0 9 0;
#X connect 8 1 10 0;
#X connect 11 0 1 0;
#X connect 13 0 2 0;
#X connect 14 0 2 0;
#X connect 16 1 15 0;
#X connect 18 0 17 1;
#X connect 19 0 17 0;
#X connect 19 0 9 0;
#X connect 20 0 17 0;
